<?xml version="1.0" encoding="utf-8"?>
<!-- Generator: Adobe Illustrator 16.0.0, SVG Export Plug-In . SVG Version: 6.00 Build 0)  -->
<!DOCTYPE svg PUBLIC "-//W3C//DTD SVG 1.1//EN" "http://www.w3.org/Graphics/SVG/1.1/DTD/svg11.dtd" [
	<!ENTITY ns_flows "http://ns.adobe.com/Flows/1.0/">
	<!ENTITY ns_extend "http://ns.adobe.com/Extensibility/1.0/">
	<!ENTITY ns_ai "http://ns.adobe.com/AdobeIllustrator/10.0/">
	<!ENTITY ns_graphs "http://ns.adobe.com/Graphs/1.0/">
	<!ENTITY ns_vars "http://ns.adobe.com/Variables/1.0/">
	<!ENTITY ns_imrep "http://ns.adobe.com/ImageReplacement/1.0/">
	<!ENTITY ns_sfw "http://ns.adobe.com/SaveForWeb/1.0/">
	<!ENTITY ns_custom "http://ns.adobe.com/GenericCustomNamespace/1.0/">
	<!ENTITY ns_adobe_xpath "http://ns.adobe.com/XPath/1.0/">
]>
<svg version="1.1" xmlns:x="&ns_extend;" xmlns:i="&ns_ai;" xmlns:graph="&ns_graphs;"
	 xmlns="http://www.w3.org/2000/svg" xmlns:xlink="http://www.w3.org/1999/xlink" xmlns:a="http://ns.adobe.com/AdobeSVGViewerExtensions/3.0/"
	 x="0px" y="0px" width="1500.705px" height="500.71px" viewBox="0 0 1500.705 500.71" enable-background="new 0 0 1500.705 500.71"
	 xml:space="preserve">
<metadata>
	<sfw  xmlns="&ns_sfw;">
		<slices></slices>
		<sliceSourceBounds  width="4216.612" height="1410.985" x="-1655.601" y="-660.631" bottomLeftOrigin="true"></sliceSourceBounds>
	</sfw>
</metadata>
<g id="AG-ANIMALS">
	<g id="POLYLINE_21_">
		
			<path fill="none" stroke="#FB8604" stroke-width="2.75" stroke-linecap="round" stroke-linejoin="round" stroke-miterlimit="10" d="
			M1406.919,300.693c1.541-3.158,2.74-6.777,3.152-10.279c0.16-1.361,0.26-3.297-1.42-3.676c-0.938-0.211-1.979,0.041-2.889,0.271
			c-1.873,0.475-3.695,1.189-5.484,1.916c-3.227,1.309-6.496,3.014-8.949,5.533c-3.004,3.084-3.785,6.965-2.584,11.049
			c0.225,0.764,0.531,1.512,0.869,2.23"/>
	</g>
	<g id="POLYLINE_22_">
		
			<path fill="none" stroke="#FB8604" stroke-width="2.75" stroke-linecap="round" stroke-linejoin="round" stroke-miterlimit="10" d="
			M1413.595,340.688c-4.713,6.65-7.299,14.084-7.076,22.291c0.062,2.338,0.33,4.672,0.807,6.961"/>
	</g>
	<g id="POLYLINE_23_">
		
			<path fill="none" stroke="#FB8604" stroke-width="2.75" stroke-linecap="round" stroke-linejoin="round" stroke-miterlimit="10" d="
			M1416.997,343.209c-0.354,1.926-0.77,3.85-0.895,5.809c-0.121,1.922,0.014,3.869,0.254,5.777c0.504,4.023,1.355,8,2.514,11.887
			c0.791,2.662,1.768,5.303,3.049,7.771"/>
	</g>
	<g id="POLYLINE_24_">
		
			<path fill="none" stroke="#FB8604" stroke-width="2.75" stroke-linecap="round" stroke-linejoin="round" stroke-miterlimit="10" d="
			M1415.12,342.74c-3.672,7.643-5.049,15.904-3.418,24.277c0.455,2.336,1.125,4.615,1.951,6.846"/>
	</g>
	<g id="POLYLINE_25_">
		
			<path fill="none" stroke="#FB8604" stroke-width="2.75" stroke-linecap="round" stroke-linejoin="round" stroke-miterlimit="10" d="
			M1425.021,344.527c0.758,0.928,1.66,1.727,2.291,2.754c0.738,1.205,1.209,2.566,1.648,3.902c1.182,3.578,1.971,7.379,2.186,11.145
			c0.078,1.336,0.094,2.705-0.086,4.033"/>
	</g>
	<g id="POLYLINE_26_">
		
			<path fill="none" stroke="#FB8604" stroke-width="2.75" stroke-linecap="round" stroke-linejoin="round" stroke-miterlimit="10" d="
			M1425.595,341.379c0.85,0.418,1.732,0.73,2.496,1.303c0.842,0.631,1.57,1.441,2.229,2.258c1.805,2.238,3.541,4.783,4.318,7.588"/>
	</g>
	<g id="POLYLINE_27_">
		
			<path fill="none" stroke="#FB8604" stroke-width="2.75" stroke-linecap="round" stroke-linejoin="round" stroke-miterlimit="10" d="
			M1422.833,346.93c2.629,4.516,3.949,9.842,3.893,15.035"/>
	</g>
	<g id="POLYLINE_28_">
		
			<path fill="none" stroke="#FB8604" stroke-width="2.75" stroke-linecap="round" stroke-linejoin="round" stroke-miterlimit="10" d="
			M1362.974,339.975c-1.512,2.244-2.801,4.096-2.869,6.879c-0.084,3.447,0.918,6.984,2.014,10.221
			c1.287,3.807,3.551,6.768,5.898,9.963c2.373,3.229,4.436,6.705,6.246,10.279c1.645,3.244,2.775,6.939,5.104,9.787
			c2.172,2.66,5.434,3.895,8.369,5.488c0.734,0.396,1.426,0.879,1.961,1.525c0.471,0.57,0.734,1.223,1.51,1.379
			c1.301,0.262,2.883-0.207,4.154-0.375c1.469-0.195,2.922-0.271,4.393-0.088c3.439,0.43,6.438,3.473,7.354,6.738
			c1.123,4.008-3.705,4.914-6.596,5.311c-4.188,0.574-8.467,0.521-12.686,0.533c-2.145,0.006-4.291-0.043-6.436-0.078
			c-1.236-0.021-2.648,0.105-3.846-0.283c-0.75-0.244-1.271-0.834-1.795-1.4c-1.355-1.471-2.66-2.982-4.25-4.215
			c-1.609-1.248-3.418-2.213-5.025-3.463c-1.197-0.932-2.141-2.072-3.064-3.27c-2.688-3.479-5.58-6.717-8.648-9.863
			c-2.848-2.92-5.789-5.98-9.088-8.398c-1.234-0.902-2.637-1.512-3.885-2.389c-1.477-1.041-2.758-2.379-4.025-3.656
			c-3.385-3.41-6.672-6.918-9.998-10.383c-2.568-2.676-5.188-5.41-8.229-7.555c-2.838-2-6.209-3.016-9.574-3.717
			c-3.875-0.807-7.682-1.111-11.627-0.83"/>
	</g>
	<g id="POLYLINE_29_">
		
			<path fill="none" stroke="#FB8604" stroke-width="2.75" stroke-linecap="round" stroke-linejoin="round" stroke-miterlimit="10" d="
			M1142.247,356.383c-3.977-0.059-8.199-0.002-12.102,0.822c-3.865,0.816-7.459,2.764-10.914,4.611
			c-2.066,1.105-4.588,2.123-5.264,4.58c-0.408,1.479-0.412,3.074-0.424,4.596c-0.018,2.16,0.061,4.32,0.162,6.479
			c0.197,4.234,0.373,8.531,0.975,12.73c0.09,0.617,0.143,1.553,0.719,1.936c0.674,0.449,1.906,0.416,2.646,0.469
			c2.016,0.141,4.182,0.236,5.748,1.684c1.32,1.219,2.119,3.107,2.445,4.848c0.258,1.385,0.326,2.936-0.67,4.055
			c-1.49,1.678-4.355,1.967-6.4,2.291c-2.064,0.324-4.158,0.557-6.24,0.734c-1.369,0.115-2.746,0.172-4.104-0.07
			c-1.82-0.324-2.939-1.617-3.709-3.215c-0.877-1.818-1.527-3.777-2.283-5.648c-0.65-1.605-1.133-3.229-1.295-4.955
			c-0.4-4.277-0.656-8.492-1.377-12.738c-1.459-8.592-3.705-17.045-4.994-25.666c-0.393-2.617-1.023-5.715-0.17-8.309
			c0.277-0.846,0.777-1.518,1.486-2.051c1.496-1.121,2.844-2.291,4.221-3.562c1.066-0.986,2.184-1.93,3.477-2.604
			c1.609-0.838,3.377-1.215,5.045-1.898c1.246-0.512,2.135-1.307,2.627-2.576c0.59-1.518,0.758-3.182,1.176-4.75
			c0.385-1.443,0.922-2.848,1.68-4.137c1.662-2.82,4.148-5.467,6.961-7.154c2.303-1.381,4.52-2.469,6.078-4.744
			c1.436-2.1,1.746-4.453,1.736-6.947c-0.008-1.914-0.07-3.85,0.229-5.746c0.266-1.676,0.84-3.271,1.52-4.82
			c1.645-3.754,3.578-7.285,4.768-11.225c0.553-1.832,0.982-3.719,1.217-5.617c0.127-1.025,0.225-2.127-0.049-3.137
			c-0.529-1.967-2.279-3.689-3.496-5.26c-6.1-7.877-12.199-15.752-18.299-23.629c-5.328-6.879-10.246-14.014-14.664-21.512
			c-4.326-7.344-8.145-15.068-11.436-22.928c-3.352-8.004-6.033-16.174-8.006-24.625c-1.971-8.441-3.496-16.963-6.678-25.062
			c-0.834-2.125-1.727-4.221-2.623-6.32c-0.717-1.682-1.504-3.377-1.918-5.164c-0.357-1.545-0.344-3.176-0.318-4.752
			c0.02-1.242,0.078-2.592,0.541-3.766c1.887-4.775,9.43,1.775,11.162,3.504c2.957,2.953,5.152,6.623,7.277,10.191
			c2.254,3.785,4.297,7.695,6.35,11.592c4.357,8.268,8.49,16.66,12.721,24.992c3.912,7.707,7.84,15.402,11.818,23.074
			c3.863,7.451,7.889,14.85,12.439,21.906c4.598,7.127,9.758,13.916,16.186,19.502c3.154,2.738,6.521,5.234,10.135,7.338
			c2.773,1.613,5.963,3.406,9.195,3.834c1.121,0.148,2.248,0.055,3.365-0.088c2.209-0.281,4.416-0.588,6.635-0.777
			c4.428-0.379,8.865-0.477,13.309-0.529c8.236-0.1,16.5,0.07,24.734,0.291c9.475,0.252,18.951,0.506,28.428,0.758
			c8.789,0.234,17.58,0.471,26.369,0.705c4.166,0.111,8.391,0.385,12.502,1.08c4.377,0.74,8.641,1.922,12.926,3.064
			c3.521,0.939,6.984,1.861,10.658,1.51c4.174-0.4,8.174-0.725,12.375-0.461c8.527,0.535,17.182,1.959,25.5,3.893
			c3.961,0.922,8.053,1.822,11.748,3.572c1.688,0.799,3.299,1.732,4.723,2.947c1.477,1.26,2.797,2.689,4.287,3.932
			c5.906,4.92,13.803,8.162,21.361,9.35c8.051,1.266,16.34,0.207,24.104-2.1c3.875-1.15,7.717-2.789,11.748-3.314
			c0.832-0.109,4.41-0.635,3.684,1.174c-0.568,1.414-1.885,2.6-2.748,3.844c-1.176,1.691-2.107,3.59-2.609,5.594
			c-0.564,2.26-0.596,4.533,0.08,6.773c1.191,3.947,3.496,7.523,5.266,11.223c1.182,2.473,2.582,5.287,2.475,8.109
			c-0.092,2.379-1.654,3.861-2.994,5.682c-0.855,1.16-1.195,2.293-0.617,3.668c1.129,2.682,2.877,5.141,3.086,8.141
			c0.117,1.66-0.861,2.23-1.662,3.553c-0.988,1.635-0.475,3.654-1.248,5.342c-0.941,2.057-3.402,3.346-5.336,4.25
			c-3.057,1.43-6.461,2.467-9.867,2.086c-3.393-0.379-6.203-2.154-9.203-3.617c-1.49-0.727-2.893-0.846-4.51-0.506
			c-3.854,0.812-7.557,1.309-11.506,1.012c-3.703-0.279-7.57-0.803-11.021-2.242c-2.924-1.217-5.189-3.557-8.119-4.74
			c-7.061-2.85-15.309-0.969-22.541,0.004c-1.953,0.264-3.928,0.5-5.902,0.459c-2.051-0.045-4.07-0.396-6.109-0.572
			c-4.025-0.346-7.963,0.322-11.881,1.203c-8.361,1.875-16.676,4.457-24.523,7.904c-7.252,3.186-15.055,7.025-20.113,13.311
			c-2.596,3.223-4.695,6.852-6.82,10.393c-2.205,3.674-4.436,7.369-6.418,11.17c-1.209,2.316-1.6,4.75-1.408,7.375
			c0.043,0.592,0.072,1.604,0.578,2.029c0.494,0.494,1.428-0.096,1.996-0.133c1.359-0.09,2.436,1.631,3.074,2.572
			c1.236,1.818,2.482,4.176,2.033,6.451c-0.281,1.422-1.242,2.752-2.566,3.373c-0.666,0.312-1.395,0.391-2.123,0.363
			c-1.328-0.051-2.486-0.145-3.814-0.016c-2.221,0.213-4.334-0.803-6.553-0.449c-1.488,0.238-2.773,1.01-4.23,0.32
			c-1.768-0.836-3.193-2.6-4.166-4.24c-1.674-2.822-1.963-5.977-1.768-9.195c0.131-2.166,0.473-4.312,0.65-6.477
			c0.156-1.896,0.055-3.799,0.166-5.697c0.209-3.549,2.145-6.924,3.246-10.246c1.418-4.271,2.453-8.666,3.584-13.02
			c1.082-4.172,2.131-8.355,3.15-12.545c0.463-1.9,0.945-3.814,1.238-5.75c0.094-0.619,0.307-1.535-0.016-2.129
			c-0.584-1.166-2.242-1.295-3.338-1.105c-1.758,0.307-3.457,0.977-5.162,1.482c-1.92,0.57-3.869,1.025-5.854,1.295
			c-3.117,0.426-6.662,0.73-9.736-0.127c-1.168-0.326-2.258-0.828-3.469-0.984c-1.445-0.186-2.924-0.09-4.367,0.062
			c-3.885,0.41-7.76,1.262-11.439,2.58c-3.502,1.254-6.758,3.07-9.656,5.406c-3.26,2.627-5.811,5.936-8.953,8.668
			c-3.037,2.643-6.842,4.377-10.469,6.047c-1.885,0.867-3.811,1.596-5.744,2.348c-0.924,0.359-1.787,0.789-2.584,1.381
			c-1.363,1.01-2.553,2.26-3.557,3.625c-0.395,0.537-0.824,1.242-0.85,1.928c0,1.549,1.713,1.867,2.871,2.293
			c1.508,0.555,2.879,1.518,4.236,2.357c1.787,1.105,3.537,2.275,5.305,3.412c3.717,2.389,7.404,4.842,11.227,7.061
			c2.098,1.217,4.488,2.129,5.859,4.232c1.055,1.615,1.871,3.438,2.461,5.271c0.34,1.059,0.699,2.172,0.686,3.297
			c-0.02,1.879-1.518,2.703-2.891,3.723c-1.514,1.123-2.512,1.51-4.408,1.32c-8.145-0.814-14.381-6.738-20.838-11.1
			c-7.051-4.762-14.727-8.59-21.617-13.584c-3.346-2.424-6.625-5.053-9.559-7.967c-1.312-1.303-2.979-2.895-2.863-4.904
			c0.08-1.414,0.66-2.834,1.066-4.174c0.582-1.908,1.25-3.807,2.064-5.629c1.682-3.766,3.936-7.168,6.195-10.604
			c3.84-5.848,6.963-11.936,9.867-18.293"/>
	</g>
	<g id="POLYLINE_30_">
		
			<path fill="none" stroke="#FB8604" stroke-width="2.75" stroke-linecap="round" stroke-linejoin="round" stroke-miterlimit="10" d="
			M742.126,285.221c-1.676,7.242-5.262,14.59-10.525,19.904c-2.945,2.977-6.51,4.988-10.213,6.867
			c-3.785,1.922-7.596,3.76-11.238,5.949c-3.209,1.93-6.379,4.26-8.279,7.559c-1.92,3.338-2.623,7.26-4.096,10.799
			c-1.662,3.996-3.537,7.891-5.021,11.959s-2.662,8.24-3.773,12.422c-1.184,4.449-2.207,8.941-3.281,13.418
			c-0.277,1.152-0.545,2.354-1.078,3.422c-0.41,0.82-1.217,1.277-1.689,2.043c-0.42,0.678-0.584,1.506-0.723,2.279
			c-0.363,2.027-0.502,4.111-0.572,6.168c-0.061,1.754-0.078,3.643,1.354,4.891c1.463,1.277,3.701,1.826,5.594,1.951
			c1.723,0.113,3.297-0.279,4.459-1.607c0.625-0.715,0.992-1.682,1.752-2.266c0.66-0.508,1.227-0.688,1.67-1.439
			c0.865-1.473,1.346-3.18,2.025-4.74c0.848-1.951,1.883-3.805,2.842-5.701c3.719-7.357,4.221-15.914,8.041-23.203
			c1.277-2.436,2.955-4.637,5.363-6.035c2.412-1.4,5.35-1.66,8.082-1.646c4.266,0.025,8.5,0.391,12.77,0.145
			c4.037-0.232,8.053-0.91,12.004-1.75c8.582-1.824,16.891-4.512,25.352-6.793c7.785-2.098,15.48-3.531,23.568-2.836
			c8.334,0.715,16.494,2.422,24.9,1.986c8.576-0.445,17.16-2.131,25.766-1.559c4.295,0.285,8.514,1.139,12.777,1.693
			c4.006,0.52,8.066,0.711,12.102,0.434c8.008-0.555,15.641-2.941,22.318-7.443c6.342-4.271,11.074-10.844,13.346-18.133
			c0.049-0.156,0.098-0.314,0.146-0.471"/>
	</g>
	<g id="POLYLINE_31_">
		
			<path fill="none" stroke="#FB8604" stroke-width="2.75" stroke-linecap="round" stroke-linejoin="round" stroke-miterlimit="10" d="
			M892.417,333.35c-0.463,8.57-0.92,17.275-2.461,25.732c-0.723,3.969-1.812,7.857-3.047,11.697
			c-0.719,2.238-1.471,4.469-2.109,6.732c-0.438,1.543-0.922,3.197-0.922,4.814c0,1.848,0.904,3.406,1.17,5.203
			c0.227,1.533,0.076,3.121,0.064,4.662c-0.014,1.898,0.041,3.793,0.33,5.672c0.611,3.996,2.479,7.127,6.512,8.164
			c3.555,0.914,7.404,0.609,11.02,0.311c2.078-0.17,4.15-0.48,6.234-0.555c0.951-0.035,2.02,0.137,2.926-0.23
			c1.205-0.488,1.975-1.855,2.406-3.008c0.678-1.807,0.316-3.678-0.809-5.217c-1.16-1.588-2.896-3.043-4.795-3.65
			c-0.73-0.234-1.436-0.324-2.197-0.361c-0.861-0.043-1.922,0.447-2.742,0.143c-0.662-0.166-1.021-1.393-1.227-1.895
			c-0.283-0.686-0.463-1.424-0.514-2.164c-0.221-3.18,0.896-6.332,1.951-9.279c1.453-4.057,3.143-8.029,4.83-11.994
			c1.641-3.857,3.574-7.428,5.986-10.863c4.865-6.926,10.309-13.656,16.59-19.355c6.381-5.789,13.705-10.145,21.305-14.125
			c6.301-3.301,12.74-6.201,18.805-9.936"/>
	</g>
	<g id="POLYLINE_32_">
		
			<path fill="none" stroke="#FB8604" stroke-width="2.75" stroke-linecap="round" stroke-linejoin="round" stroke-miterlimit="10" d="
			M932.651,336.982c2.84-0.473,5.359-0.689,8.129,0.18c3.77,1.186,7.322,2.936,11.148,3.973c1.902,0.514,3.916,0.916,5.74,1.684
			c1.1,0.463,2.02,1.234,2.984,1.924c3.49,2.496,7.223,4.641,10.936,6.787c8.213,4.742,16.527,9.314,24.793,13.965
			c3.131,1.762,6.248,3.562,9.299,5.459c3.096,1.924,6.469,3.891,8.844,6.713c2.072,2.465,5.107,3.594,7.734,5.361
			c1.674,1.125,3.111,2.494,4.643,3.795c1.109,0.943,2.301,1.586,3.619,2.201c0.852,0.396,1.721,0.795,2.438,1.418
			c0.83,0.719,1.428,1.662,2.232,2.404c0.953,0.881,2.051,1.018,3.299,0.805c1.461-0.25,2.832-0.91,4.303-1.105
			c0.555-0.072,1.109-0.076,1.494,0.383c0.469,0.627,0.518,1.453,1.252,1.877c0.457,0.264,1.025,0.291,1.541,0.301
			c1.82,0.033,3.676-0.305,5.477-0.543c1.264-0.166,2.584-0.361,3.758-0.889c1.543-0.697,2.277-2.018,2.445-3.664
			c0.172-1.703-0.037-3.777-1.002-5.242c-1.275-1.936-3.873-2.855-5.922-3.637c-1.76-0.67-3.594-1.32-5.447-1.678
			c-0.523-0.1-1.234,0.016-1.689-0.223c-1.459-1.096-2.713-2.514-4.066-3.738c-1.199-1.084-2.398-2.17-3.598-3.254
			c-7.008-6.344-14.273-12.5-20.869-19.283c-1.426-1.465-2.811-2.969-4.084-4.57c-1.227-1.545-2.256-3.236-3.494-4.771
			c-2.471-3.064-5.705-5.428-8.186-8.508c-4.775-5.936-6.512-13.668-7.648-21.039c-0.65-4.223-1.344-8.467-1.623-12.732
			c-0.18-2.719-0.232-5.768,1.045-8.264c0.854-1.67,2.299-2.939,3.912-3.857c1.266-0.723,2.646-1.234,4.055-1.602
			c1.629-0.426,3.158-0.348,4.816-0.428c1.895-0.09,3.75-0.678,5.613-0.998c1.994-0.344,4.008-0.512,6.031-0.422
			c4.193,0.189,8.25,1.314,12.414,1.713c1.666,0.158,3.297,0.086,4.744-0.826c1.254-0.793,2.258-1.926,3.342-2.924
			c1.137-1.045,2.494-1.781,3.682-2.76c1.834-1.512,3.703-3.592,4.242-5.986c0.375-1.666-0.021-3.488-0.805-4.982
			c-0.809-1.543-2.217-2.643-2.938-4.223c-0.561-1.229-0.805-2.604-1.023-3.926c-0.312-1.9-0.539-3.861-0.465-5.789
			c0.039-1.014,0.189-2.02-0.035-3.02c-0.242-1.078-0.801-2.096-1.367-3.033c-2.047-3.387-4.537-6.557-7.264-9.424
			c-4.391-4.621-9.898-8.463-16.115-10.045"/>
	</g>
	<g id="POLYLINE_33_">
		
			<path fill="none" stroke="#FB8604" stroke-width="2.75" stroke-linecap="round" stroke-linejoin="round" stroke-miterlimit="10" d="
			M697.077,337.934c-1.732,1.064-3.426,2.166-5.361,2.832c-1.711,0.59-3.514,0.896-5.307,1.104c-4.049,0.471-8.164,0.49-12.225,0.18
			c-7.533-0.576-15.189-2.309-21.395-6.818c-3.172-2.307-5.912-5.152-8.496-8.088c-2.838-3.225-5.547-6.568-8.107-10.018
			c-1.137-1.531-2.248-3.102-3.178-4.77c-0.348-0.621-0.898-1.537-0.77-2.295c0-0.607,0.715-0.793,1.186-0.855
			c1.656-0.219,3.492-0.029,5.15,0.086c2.59,0.18,4.965,0.83,7.057,2.412c3.102,2.344,5.727,5.158,9.072,7.195
			c6.809,4.146,15.49,7.51,23.479,5.186c7.621-2.217,14.285-7.83,19.965-13.164c6.463-6.066,12.361-12.674,18.104-19.416
			c5.633-6.615,11.148-13.395,16.004-20.605c2.287-3.398,4.48-6.67,7.361-9.609c2.879-2.938,6.053-5.615,9.471-7.906
			c7.016-4.703,15.219-6.854,23.441-8.324c8.625-1.543,17.381-2.943,26.121-3.629c4.303-0.338,8.602-0.037,12.9,0.191
			c4.359,0.234,8.713,0.533,13.07,0.811c8.885,0.562,17.758,1.193,26.625,1.996c4.318,0.391,8.619,0.945,12.912,1.551
			c4.184,0.592,8.34,1.418,12.551,1.807c8.525,0.785,17.064-0.818,25.539-1.527c8.549-0.715,16.959-0.113,25.475,0.691
			c4.318,0.406,8.643,0.889,12.984,0.889c3.127,0,6.215-0.309,8.941-1.943c1.189-0.713,2.275-1.625,3.588-2.111
			c1.123-0.416,2.334-0.543,3.521-0.627c4.191-0.291,8.32-0.412,12.459-1.236c7.973-1.588,15.242-5.463,22.053-9.777
			c1.037-0.656,2.031-1.359,3.039-2.045"/>
	</g>
	<g id="POLYLINE_34_">
		
			<path fill="none" stroke="#FB8604" stroke-width="2.75" stroke-linecap="round" stroke-linejoin="round" stroke-miterlimit="10" d="
			M1002.831,246.451c-2.133-0.811-4.125-1.811-5.484-3.701c-1.699-2.367-2.605-5.525-3.012-8.371
			c-0.221-1.545-0.064-3.059-0.018-4.609c0.041-1.344,0.1-2.691,0.494-3.986c0.709-2.336,2.455-4.156,4.377-5.582
			c1.666-1.236,4.068-2.932,6.289-2.73c2.303,0.209,3.777,2.779,4.85,4.521c1.475,2.393,2.742,4.91,4.061,7.391
			c1.098,2.068,2.402,3.799,3.779,5.674"/>
	</g>
	<g id="POLYLINE_35_">
		
			<path fill="none" stroke="#FB8604" stroke-width="2.75" stroke-linecap="round" stroke-linejoin="round" stroke-miterlimit="10" d="
			M1011.761,224.469c2.625-2.041,5.662-3.531,8.951-4.135c1.092-0.201,2.348-0.191,2.982,0.857c0.98,1.619,0.793,4.141,0.707,5.926
			c-0.111,2.297-0.512,4.682-1.678,6.695"/>
	</g>
	<g id="POLYLINE_36_">
		
			<line fill="none" stroke="#FB8604" stroke-width="2.75" stroke-linecap="round" stroke-linejoin="round" stroke-miterlimit="10" x1="1034.856" y1="276.963" x2="1035.854" y2="302.574"/>
	</g>
	<g id="POLYLINE_37_">
		
			<line fill="none" stroke="#FB8604" stroke-width="2.75" stroke-linecap="round" stroke-linejoin="round" stroke-miterlimit="10" x1="1037.376" y1="276.783" x2="1056.542" y2="298.357"/>
	</g>
	<g id="POLYLINE_38_">
		
			<path fill="none" stroke="#FB8604" stroke-width="2.75" stroke-linecap="round" stroke-linejoin="round" stroke-miterlimit="10" d="
			M1045.108,274.533c6.225,0.699,12.123,2.604,17.598,5.656"/>
	</g>
	<g id="POLYLINE_39_">
		
			<path fill="none" stroke="#FB8604" stroke-width="2.75" stroke-linecap="round" stroke-linejoin="round" stroke-miterlimit="10" d="
			M1044.874,275.527c5.762,1.104,11.354,3.365,16.178,6.736"/>
	</g>
	<g id="POLYLINE_40_">
		
			<path fill="none" stroke="#FB8604" stroke-width="2.75" stroke-linecap="round" stroke-linejoin="round" stroke-miterlimit="10" d="
			M1044.126,277.158c4.232,0.789,8.322,2.881,11.539,5.762"/>
	</g>
	<g id="POLYLINE_41_">
		
			<path fill="none" stroke="#FB8604" stroke-width="2.75" stroke-linecap="round" stroke-linejoin="round" stroke-miterlimit="10" d="
			M1036.284,277.564c3.434,8.012,7.307,15.801,11.703,23.328c0.025,0.043,0.049,0.086,0.074,0.129"/>
	</g>
	<g id="POLYLINE_42_">
		
			<path fill="none" stroke="#FB8604" stroke-width="2.75" stroke-linecap="round" stroke-linejoin="round" stroke-miterlimit="10" d="
			M775.146,339.225c-2.117,4.15-4.121,8.35-6.125,12.555c-0.803,1.68-1.59,3.367-2.322,5.08c-0.609,1.418-1.312,2.918-1.547,4.457
			c-0.377,2.471,1.365,4.789,2.703,6.68c2.531,3.582,5.355,6.957,8.176,10.312c5.428,6.459,11.113,12.77,17.316,18.498
			c1.459,1.346,2.928,2.68,4.424,3.986c1.682,1.467,3.301,3.131,5.109,4.443c0.812,0.59,1.973,0.586,2.938,0.691
			c2.098,0.227,4.211,0.342,6.32,0.414c4.607,0.158,10.912,0.402,14.352-3.322c1.057-1.143,1.902-2.896,1.252-4.443
			c-0.859-2.041-3.486-2.748-5.104-3.99c-1.521-1.17-2.438-2.443-4.477-2.354c-1.486,0.064-2.951,0.441-4.363,0.887
			c-0.682,0.215-1.312,0.447-2.012,0.211c-0.812-0.275-1.52-0.965-2.121-1.545c-1.385-1.336-2.686-2.77-3.951-4.217
			c-3.008-3.439-6.066-6.84-9.025-10.318c-1.301-1.527-2.662-3.15-2.486-5.268c0.23-2.764,2.152-5.5,3.598-7.756
			c2.162-3.377,5.24-5.773,7.881-8.736c2.865-3.217,5.279-6.832,7.953-10.205c1.707-2.156,3.561-4.189,5.385-6.244"/>
	</g>
	<g id="POLYLINE_43_">
		
			<path fill="none" stroke="#FB8604" stroke-width="2.75" stroke-linecap="round" stroke-linejoin="round" stroke-miterlimit="10" d="
			M430.181,373.859c-0.35,3.043-1.223,6.676-0.359,9.707c0.453,1.594,1.648,2.545,3.137,3.162c3.369,1.402,7.273,1.777,10.873,2.131
			c4.332,0.428,8.691,0.617,13.045,0.592c8.754-0.051,17.375-1.332,26.08-2.078c4.137-0.354,8.266-0.479,12.408-0.148
			c4.029,0.32,8.012,0.99,11.988,1.691c4.564,0.805,9.107,1.641,13.719,2.113c3.695,0.379,7.666,0.602,11.307-0.301
			c2.127-0.527,3.961-1.59,5.496-3.156c1.365-1.393,2.475-3.008,3.789-4.445c1.055-1.154,2.328-2.072,3.693-2.82
			c2.662-1.459,6.109-2.652,9.188-2.562c1.756,0.053,2.707,1.09,3.328,2.654c2.66,6.707-2.232,13.348-6.9,17.725
			c-5.346,5.01-12.174,8.928-19.494,9.986c-8.195,1.186-16.449-0.469-24.584-1.373c-8.727-0.971-17.441-0.99-26.209-1.002
			c-8.623-0.014-17.252,0.018-25.863-0.494c-8.793-0.523-17.646-1.135-26.291-2.914c-5.482-1.129-12.496-2.891-15.434-8.209
			c-1.35-2.441-1.574-5.338-1.357-8.07c0.332-4.199,1.652-8.322,3.129-12.244c1.5-3.98,3.201-7.967,4.076-12.146
			c0.836-3.988,0.941-8.092,1.895-12.061c1.918-7.977,6.949-14.549,12.148-20.707c5.639-6.678,11.768-12.977,18.02-19.076
			c6.166-6.018,12.799-11.564,19.709-16.705c6.848-5.094,14.047-9.713,21.373-14.082c7.029-4.193,14.127-8.26,21.316-12.172
			c5.297-2.879,10.592-5.76,15.889-8.641c2.619-1.424,5.611-2.703,7.879-4.648c0.77-0.662,1.156-1.488,1.605-2.387
			c0.695-1.387,1.482-2.693,2.494-3.871c2.244-2.613,5.408-4.336,8.398-5.941c3.732-2.006,7.686-3.584,11.389-5.645
			c3.477-1.936,6.568-4.43,9.281-7.336c2.912-3.117,5.613-6.414,8.428-9.617c2.777-3.164,5.607-6.332,9.049-8.797
			c1.59-1.139,3.262-2.145,5.014-3.018c1.688-0.844,3.496-1.529,5.078-2.572c2.547-1.682,4.244-4.285,5.863-6.812
			c2.266-3.535,4.318-7.236,6.805-10.627c0.889-1.213,2.434-3.455,4.236-3.164c1.289,0.207,2.23,1.475,2.738,2.582
			c1.213,2.652,1.086,5.822,1.193,8.666c0.057,1.521,0.031,3.084,0.363,4.578c0.131,0.59,0.418,1.141,0.979,1.416
			c0.916,0.447,2.109,0.316,3.09,0.469c0.787,0.121,1.549,0.326,2.271,0.662c1.629,0.758,3.057,1.896,4.635,2.752
			c1.818,0.988,3.789,1.664,5.646,2.576c3.137,1.539,5.648,4.039,6.846,7.354c0.855,2.363,1.096,5.021,2.66,7.068
			c1.705,2.229,4.605,3.445,6.982,4.771c1.469,0.82,2.879,1.684,2.711,3.555c-0.111,1.23-0.645,2.451-1.178,3.547
			c-0.865,1.783-1.855,3.494-2.941,5.154c-2.518,3.842-6.002,8.678-11.037,8.957c-2.803,0.154-5.469-1.053-8.275-0.902
			c-2.494,0.135-4.73,1.229-6.736,2.66c-3.283,2.348-5.994,5.445-8.572,8.521c-2.645,3.156-5.094,6.494-7.227,10.021
			c-2.029,3.359-3.742,7.047-4.436,10.932c-0.705,3.939-0.215,7.961-0.432,11.932c-0.213,3.914-1.125,7.684-2.869,11.201
			c-1.844,3.717-4.33,7.1-6.871,10.363c-5.311,6.824-11.416,12.969-16.924,19.625c-2.641,3.189-5.061,6.5-7.172,10.062
			c-2.164,3.648-3.965,7.502-6.27,11.066c-2.496,3.857-5.746,7.654-10.213,9.203"/>
	</g>
	<g id="POLYLINE_44_">
		
			<path fill="none" stroke="#FB8604" stroke-width="2.75" stroke-linecap="round" stroke-linejoin="round" stroke-miterlimit="10" d="
			M520.003,390.92c1.064-0.988,2.143-2,2.99-3.186c0.918-1.285,1.566-2.703,2.314-4.088c1.619-3,3.854-5.506,6.465-7.684"/>
	</g>
	<g id="POLYLINE_45_">
		
			<path fill="none" stroke="#FB8604" stroke-width="2.75" stroke-linecap="round" stroke-linejoin="round" stroke-miterlimit="10" d="
			M541.558,404.779c1.752,0.594,3.379,1.238,5.227,1.48c1.938,0.252,3.912,0.248,5.861,0.248c2.111,0,4.225-0.059,6.33-0.18
			c1.328-0.076,2.879-0.031,4.143-0.518c0.518-0.199,0.836-0.504,0.977-1.047c0.32-1.234,0.115-2.729,0.043-3.982
			c-0.125-2.174-0.451-4.902-2.283-6.359c-1.752-1.393-4.27-1.439-6.391-1.381"/>
	</g>
	<g id="POLYLINE_46_">
		
			<path fill="none" stroke="#FB8604" stroke-width="2.75" stroke-linecap="round" stroke-linejoin="round" stroke-miterlimit="10" d="
			M554.548,377.744c-1.023-7.953-1.234-16.246-0.164-24.211c0.451-3.342,1.082-6.646,2.781-9.604
			c0.973-1.691,2.244-3.182,3.277-4.834c1.1-1.756,2-3.625,3.004-5.434c0.078-0.141,0.156-0.279,0.234-0.418"/>
	</g>
	<g id="POLYLINE_47_">
		
			<path fill="none" stroke="#FB8604" stroke-width="2.75" stroke-linecap="round" stroke-linejoin="round" stroke-miterlimit="10" d="
			M575.302,334.875c-1.264,8.645-2.229,17.355-3.68,25.969c-1.389,8.254-3.805,16.496-3.164,24.943
			c0.143,1.877,0.389,3.746,0.828,5.578c0.205,0.85,0.432,1.926,1.012,2.621c0.873,1.047,2.658,0.234,3.85,0.354
			c1.631,0.164,3.447,0.846,4.232,2.393c0.92,1.809,0.303,4.301-0.562,6.012c-0.801,1.586-2.02,2.629-3.824,2.773
			c-1.555,0.123-3.123-0.102-4.684-0.047c-1.99,0.068-3.979,0.32-5.973,0.25"/>
	</g>
	<g id="POLYLINE_48_">
		
			<path fill="none" stroke="#FB8604" stroke-width="2.75" stroke-linecap="round" stroke-linejoin="round" stroke-miterlimit="10" d="
			M610.038,187.693c-0.871,1.746-1.713,3.459-2.105,5.387c-0.359,1.77-0.414,3.584-0.434,5.383
			c-0.039,3.545,0.115,7.43,1.561,10.717c0.291,0.664,0.615,1.312,0.928,1.967"/>
	</g>
	<g id="POLYLINE_49_">
		
			<path fill="none" stroke="#FB8604" stroke-width="2.75" stroke-linecap="round" stroke-linejoin="round" stroke-miterlimit="10" d="
			M618.644,192.418c0.957-2.094,2.852-4.078,4.85-5.205c0.984-0.555,2.412-0.75,2.359,0.77c-0.139,3.973-5.371,9.152-1.965,12.916
			c0.393,0.434,0.85,0.803,1.322,1.146"/>
	</g>
	<g id="SPLINE_8_">
		
			<path fill="none" stroke="#FB8604" stroke-width="2.75" stroke-linecap="round" stroke-linejoin="round" stroke-miterlimit="10" d="
			M535.261,389.615c-0.566-2.412-1.225-4.803-1.842-7.205c-0.361-1.404-0.744-2.793-0.83-4.242c-0.031-0.51-0.299-1.004-0.504-1.457
			c-0.42-0.92-0.869-1.824-1.299-2.738c-0.984-2.092-1.898-4.221-2.652-6.408c-1.762-5.109-2.381-10.207-0.975-15.475
			c1.43-5.354,3.869-10.369,5.068-15.797c0.912-4.135,1.324-8.369,1.568-12.59c0.242-4.221,0.4-8.48,0.338-12.707
			c-0.061-4.109-0.193-8.229-0.613-12.316c-0.254-2.457-0.543-5.02-1.404-7.354"/>
	</g>
	<g id="POLYLINE_50_">
		
			<path fill="none" stroke="#FB8604" stroke-width="2.75" stroke-linecap="round" stroke-linejoin="round" stroke-miterlimit="10" d="
			M644.899,235.467c4.715,3.18,8.783,7.607,11.41,12.639"/>
	</g>
	<g id="POLYLINE_51_">
		
			<path fill="none" stroke="#FB8604" stroke-width="2.75" stroke-linecap="round" stroke-linejoin="round" stroke-miterlimit="10" d="
			M645.241,233.988c5.939,1.74,11.172,4.881,15.512,9.277"/>
	</g>
	<g id="POLYLINE_52_">
		
			<line fill="none" stroke="#FB8604" stroke-width="2.75" stroke-linecap="round" stroke-linejoin="round" stroke-miterlimit="10" x1="642.624" y1="235.15" x2="651.226" y2="253.271"/>
	</g>
	<g id="POLYLINE_53_">
		
			<path fill="none" stroke="#FB8604" stroke-width="2.75" stroke-linecap="round" stroke-linejoin="round" stroke-miterlimit="10" d="
			M309.755,198.645c0.822,3.527,2.006,6.768,4.746,9.266c1.414,1.289,3.088,2.432,5.027,2.697c0.932,0.127,1.861,0.078,2.797,0.152"
			/>
	</g>
	<g id="POLYLINE_54_">
		
			<path fill="none" stroke="#FB8604" stroke-width="2.75" stroke-linecap="round" stroke-linejoin="round" stroke-miterlimit="10" d="
			M330.798,191.068c1.141-3.9,2.678-7.686,4.678-11.225c0.312-0.555,2.211-4.328,3.34-3.16c0.971,1.459,0.656,3.967,0.643,5.6
			c-0.021,2.654-0.25,5.312-0.176,7.957"/>
	</g>
	<g id="POLYLINE_55_">
		
			<path fill="none" stroke="#FB8604" stroke-width="2.75" stroke-linecap="round" stroke-linejoin="round" stroke-miterlimit="10" d="
			M354.015,336.033c0.396,3.883,1.373,7.359,2.922,10.932c1.646,3.799,2.305,7.705,3.082,11.756
			c1.639,8.559,4.25,16.93,6.768,25.262c0.438,1.449,0.846,2.949,1.504,4.316c0.303,0.629,0.666,1.309,1.297,1.66
			c0.701,0.35,1.473,0.295,2.234,0.254c1.146-0.062,2.303-0.131,3.422,0.176c3.221,0.879,7.949,5.965,4.947,9.23
			c-2.338,2.541-6.342,2.705-9.477,2.105"/>
	</g>
	<g id="POLYLINE_56_">
		
			<path fill="none" stroke="#FB8604" stroke-width="2.75" stroke-linecap="round" stroke-linejoin="round" stroke-miterlimit="10" d="
			M64.808,389.842c3.426,0.02,6.756,0.957,9.684,2.721c1.455,0.877,2.824,1.955,3.988,3.191c0.486,0.518,0.766,1.279,1.342,1.688
			c0.836,0.557,2.076,0.598,3.031,0.719c1.938,0.242,3.893,0.354,5.84,0.484c3.605,0.24,7.209,0.459,10.818,0.654
			c9.219,0.5,18.438,1.066,27.66,1.492c9.326,0.432,18.65,0.924,27.98,1.213c7.994,0.248,15.996,0.492,23.994,0.512
			c11.01,0.027,22.018,0.057,33.027,0.084c3.674,0.01,7.346,0.02,11.02,0.027c2.334,0.006,4.727-0.129,7.047,0.137"/>
	</g>
	<g id="POLYLINE_57_">
		
			<path fill="none" stroke="#FB8604" stroke-width="2.75" stroke-linecap="round" stroke-linejoin="round" stroke-miterlimit="10" d="
			M309.108,394.266c-1.523-1.504-4.303-1.635-6.271-1.771c-4.059-0.277-8.199-0.1-12.252,0.182c-4.34,0.301-8.65,0.807-12.98,1.205
			c-3.477,0.318-7.086,0.578-10.461-0.512c-1.061-0.344-2.527-0.883-3.074-1.951c-0.324-1.295,0.199-1.961,0.713-3.211"/>
	</g>
	<g id="POLYLINE_58_">
		
			<path fill="none" stroke="#FB8604" stroke-width="2.75" stroke-linecap="round" stroke-linejoin="round" stroke-miterlimit="10" d="
			M64.808,389.842c-1.436-0.287-3.6-0.246-4.117-1.984c-0.455-1.531,0.357-3.361,1.438-4.441c1.006-1.006,2.264-1.562,3.645-1.838
			c3.523-0.705,7.578,0.17,10.965,1.166c1.834,0.539,3.613,1.195,5.32,2.062c1.482,0.752,2.949,1.523,4.553,1.992
			c3.711,1.086,7.762,1.092,11.598,1.186c6.572,0.16,13.15,0.182,19.725,0.262c12.775,0.156,25.549,0.312,38.324,0.467
			c8.709,0.107,17.42,0.213,26.131,0.318c3.006,0.037,6.018,0.049,9.023,0.008c3.846-0.053,7.889,0.111,11.645-0.855
			c3.506-0.902,6.965-2.793,9.916-4.855c2.33-1.629,4.584-3.682,5.695-6.355c1.23-2.959,0.973-6.299,0.682-9.414
			c-0.408-4.375-1.072-8.719-1.391-13.104c-0.609-8.412,0.17-16.801,2.109-24.998c1.945-8.219,5.135-16.211,8.918-23.746
			c3.791-7.551,8.34-14.875,14.021-21.158c5.559-6.146,12.188-11.242,19.461-15.201c3.611-1.965,7.398-3.693,11.297-5.006
			c1.842-0.621,3.699-1.154,5.611-1.514c1.361-0.256,2.729-0.412,4.018-0.938c2.883-1.174,5.225-3.277,8.367-3.842
			c3.385-0.607,6.828,0.129,10.215-0.342c5.486-0.766,7.6-6.619,8.287-11.473c0.604-4.273,0.061-8.742-0.154-13.025
			c-0.217-4.258-0.373-8.508-0.352-12.773c0.02-4.297,0.234-8.59,0.248-12.887c0.016-4.426-0.24-8.807-0.543-13.223
			c-0.283-4.104,0.17-8.223,1.471-12.129c0.492-1.473,1.381-4.486,3.203-4.932c1.641-0.41,3.137,1.807,3.906,2.883
			c1.057,1.479,1.973,3.068,2.785,4.695c0.699,1.398,1.232,2.932,2.141,4.215c1.156,1.631,2.941,2.092,4.85,2.131
			c4.084,0.08,8.113-0.9,12.189-0.982c4.129-0.084,8.27,0.324,12.393,0.521c1.762,0.084,3.43,0.295,4.471,1.857
			c1.299,1.953,2.162,3.645,4.311,4.762c3.104,1.615,6.725,1.961,9.809,3.57c1.678,0.875,2.25,2.277,2.818,4.016
			c0.975,2.975,0.994,5.975,0.068,8.969c-1.109,3.59-3.273,7.051-5.691,9.906c-1.99,2.348-4.277,4.609-7.203,5.729
			c-2.984,1.141-6.234,0.844-9.314,0.295c-4.09-0.727-8.188-1.617-12.037-3.217c-1.207-0.502-2.375-1.084-3.506-1.736"/>
	</g>
	<g id="POLYLINE_59_">
		
			<path fill="none" stroke="#FB8604" stroke-width="2.75" stroke-linecap="round" stroke-linejoin="round" stroke-miterlimit="10" d="
			M362.749,228.697c-0.084,3.564,0.355,7.203,1.322,10.635c0.48,1.709,1.15,3.314,2.016,4.863c0.701,1.26,1.615,2.447,2.084,3.824
			c0.873,2.562-0.029,5.406,0.406,8.049c0.529,3.217,2.203,6.178,3.975,8.865c2.117,3.209,4.514,6.406,5.479,10.195
			c0.947,3.725,0.131,7.516-1.104,11.068c-1.34,3.85-3.219,7.555-5.162,11.129c-2.16,3.971-4.408,7.881-6.74,11.752
			c-2.285,3.797-4.764,7.455-7.266,11.111c-2.084,3.047-3.064,6.244-3.445,9.895c-0.395,3.781-0.359,7.635-0.334,11.43
			c0.031,4.77,0.127,9.545,0.092,14.316c-0.031,4.293-0.562,8.561-0.607,12.848c-0.037,3.744,1.098,7.369,2.41,10.838
			s2.787,7.418,5.17,10.312c0.775,0.943,1.709,1.848,3.008,1.785c0.967-0.045,1.855-0.529,2.809-0.678
			c0.836-0.131,1.703-0.066,2.512,0.174c1.869,0.559,2.965,2.033,3.188,3.936c0.236,2-0.27,4.488-1.424,6.162
			c-0.375,0.545-0.875,1-1.525,1.182c-0.713,0.199-1.402-0.199-2.074-0.078c-0.418,0-1.076,0.57-1.541,0.682
			c-1.393,0.334-2.898,0.354-4.322,0.359c-3.033,0.016-6.58,0.113-9.441-1.053c-1.885-0.768-1.986-2.09-2.186-3.881
			c-0.195-1.756-2.135-2.689-3.125-4.004c-1.982-2.637-2.883-6.115-3.818-9.223c-1.199-3.994-2.324-7.867-4.016-11.693
			c-1.617-3.66-3.408-7.244-5.158-10.844c-2.088-4.291-4.113-8.619-6.273-12.873c-0.371-0.727-0.859-1.865-1.672-2.215
			c-0.637-0.318-1.391,0.146-1.93,0.457c-1.348,0.777-2.541,1.846-3.725,2.844c-1.797,1.512-3.566,3.064-5.424,4.5
			c-2.418,1.869-5.293,3.705-6.717,6.523c-1.037,2.053-0.707,4.08,0.107,6.154c0.664,1.688,2.338,3.969,1.811,5.936
			c-0.512,1.914-2.662,3.098-3.746,4.674c-1.016,1.477,0.434,2.123,1.531,2.922c1.449,1.055,2.387,2.516,2.668,4.303
			c0.27,1.721-0.178,3.238-1.662,4.213c-0.533,0.35-1.707,0.744-1.979,1.432c-0.379,0.568,0.549,1.377,0.896,1.678
			c2.098,1.824,4.969,3.33,6.43,5.781c0.625,1.049,0.641,2.211,0.02,3.273c-0.775,1.326-2.32,2.465-3.838,2.77
			c-0.814,0.164-1.693-0.232-2.459,0.031c-0.725,0.182-1.328,0.828-2.102,1.021c-2.756,0.689-5.953,0.166-8.75,0.045
			c-5.42-0.238-10.838-0.477-16.256-0.717c-8.371-0.367-16.758-0.598-25.135-0.74c-4.629-0.078-9.256-0.1-13.885-0.104
			c-1.922-0.004-3.852,0.008-5.771,0.094c-1.572,0.068-3.404,0.426-4.977,0.123c-0.666-0.127-0.871-0.488-0.896-1.143
			c-0.08-2.012,0.373-4.141,0.58-6.129c0.422-4.029,0.844-8.072,0.557-12.125c-0.299-4.211-1.316-8.297-2.318-12.381
			c-0.92-3.758-1.455-7.598-1.557-11.467c-0.096-3.674,0.273-7.367,1.209-10.922"/>
	</g>
	<g id="POLYLINE_60_">
		
			<path fill="none" stroke="#FB8604" stroke-width="2.75" stroke-linecap="round" stroke-linejoin="round" stroke-miterlimit="10" d="
			M324.853,347.613c1.609-1.135,2.797-1.842,3.586-3.719c1.211-2.879,1.846-6.398,1.627-9.518c-0.168-2.367-1.377-4.199-2.268-6.342
			c-1.139-2.746-1.332-5.84-1.506-8.775"/>
	</g>
	<g id="POLYLINE_61_">
		
			<path fill="none" stroke="#FB8604" stroke-width="2.75" stroke-linecap="round" stroke-linejoin="round" stroke-miterlimit="10" d="
			M337.894,232.096c2.285-3.154,5.021-6,7.969-8.541c3.021-2.605,6.209-5.078,9.842-6.775c1.541-0.721,3.166-1.26,4.766-1.832"/>
	</g>
	<g id="POLYLINE_62_">
		
			<path fill="none" stroke="#FB8604" stroke-width="2.75" stroke-linecap="round" stroke-linejoin="round" stroke-miterlimit="10" d="
			M352.944,241.287c0.158-3.654,0.941-7.244,2.045-10.725c1.113-3.514,2.479-7.17,4.715-10.137c0.982-1.301,2.164-2.434,3.299-3.6"
			/>
	</g>
	<g id="POLYLINE_63_">
		
			<path fill="none" stroke="#FB8604" stroke-width="2.75" stroke-linecap="round" stroke-linejoin="round" stroke-miterlimit="10" d="
			M345.563,242.441c0.707-4.055,2.195-7.988,3.977-11.686c1.721-3.566,3.705-7.172,6.408-10.098c1.586-1.719,3.463-3.09,5.314-4.502
			"/>
	</g>
</g>
<g id="X-VPRT" display="none">
</g>
<g id="N-NOTE">
</g>
<g id="N-TEXT">
</g>
<g id="D-DIAG-DASH">
</g>
<g id="N-DIMS">
</g>
<g id="D-DIAG-OUTLINE">
	<g id="SPLINE_18_">
		
			<path fill="none" stroke="#FB8604" stroke-width="3.5" stroke-linecap="round" stroke-linejoin="round" stroke-miterlimit="10" d="
			M1362.974,339.975c2.365,0.873,4.561,2.029,6.697,3.357c1.748,1.088,3.5,2.082,5.471,2.713c4.922,1.576,10.543,2.168,15.682,1.627
			c2.016-0.213,3.949-0.762,5.943-1.082c2.363-0.379,4.221,0.799,6.232,1.867c2.201,1.168,4.525,2.146,7.027,2.398
			c2.729,0.275,5.475-0.393,8.002-1.385c2.172-0.852,4.58-1.98,6.174-3.74c1.799-1.986,0.734-4.861,2.314-6.91
			c0.58-0.752,1.271-1.328,1.41-2.326c0.17-1.223-0.23-2.543-0.613-3.689c-0.434-1.303-1.02-2.535-1.666-3.744
			c-0.557-1.043-1.291-2.25-1.074-3.484c0.184-1.051,1.004-1.932,1.654-2.73c0.809-0.992,1.645-2.016,2.012-3.266
			c0.748-2.549-0.35-5.326-1.355-7.645c-1.16-2.672-2.551-5.238-3.863-7.836c-1.25-2.467-2.553-5.057-2.781-7.857
			c-0.229-2.816,0.623-5.689,1.973-8.141c0.637-1.16,1.41-2.234,2.215-3.281c0.568-0.742,1.461-1.607,1.684-2.545
			c0.359-1.514-3.447-0.934-4.162-0.826c-2.363,0.357-4.637,1.113-6.9,1.854c-11.303,3.693-23.154,5.705-34.768,2.047
			c-5.172-1.629-10.32-4.064-14.598-7.432c-2.719-2.141-4.887-4.818-7.951-6.518c-4.043-2.24-8.711-3.338-13.188-4.352
			c-4.926-1.111-9.906-1.996-14.902-2.721c-4.633-0.672-9.316-1.264-14.002-1.361c-2.137-0.043-4.268,0.051-6.391,0.287
			c-1.441,0.162-2.881,0.391-4.334,0.43c-4.369,0.119-8.744-1.537-12.91-2.645c-4.221-1.123-8.479-2.066-12.824-2.533
			c-7.965-0.855-16.035-0.809-24.031-0.998c-10.188-0.24-20.371-0.557-30.557-0.826c-9.982-0.266-19.971-0.514-29.959-0.525
			c-7.906-0.012-15.719,0.314-23.564,1.301c-1.861,0.234-3.594,0.236-5.4-0.328c-3.129-0.98-6.088-2.607-8.859-4.336
			c-9.049-5.645-16.332-13.486-22.334-22.23c-6.787-9.887-12.361-20.578-17.834-31.23c-5.631-10.963-11.111-22.004-16.709-32.984
			c-4.525-8.875-8.895-18.062-14.539-26.297c-1.586-2.314-3.34-4.541-5.52-6.332c-2.234-1.836-8.525-6.477-9.811-1.434
			c-1.037,4.072-0.113,8.287,1.482,12.045c1.842,4.344,3.688,8.664,5.104,13.17c1.533,4.883,2.539,9.902,3.637,14.895
			c1.262,5.744,2.66,11.455,4.49,17.047c3.668,11.211,8.754,22.021,14.51,32.303c5.529,9.879,12.127,18.967,19.086,27.873
			c3.686,4.713,7.33,9.459,10.975,14.203c1.379,1.797,2.758,3.594,4.154,5.377c1.223,1.562,2.871,3.188,3.555,5.092
			c0.598,1.664,0.189,3.652-0.131,5.33c-0.535,2.799-1.383,5.553-2.492,8.178c-1.15,2.711-2.627,5.277-3.699,8.021
			c-1.129,2.889-1.27,5.787-1.254,8.855c0.016,2.809-0.229,5.428-1.939,7.762c-1.422,1.936-3.318,3.018-5.369,4.16
			c-4.883,2.719-8.289,7.584-9.48,12.98c-0.457,2.072-0.699,4.477-2.762,5.596c-2.289,1.24-4.916,1.5-7.09,3.047
			c-1.998,1.424-3.549,3.381-5.562,4.783c-0.861,0.6-1.678,1.176-2.113,2.17c-0.814,1.855-0.557,4.17-0.35,6.115
			c0.213,1.988,0.547,3.963,0.902,5.93c0.887,4.926,1.949,9.818,2.955,14.721c0.98,4.773,1.957,9.559,2.443,14.41
			c0.326,3.268,0.148,6.621,1.264,9.754c0.438,1.229,0.984,2.412,1.459,3.627c0.486,1.24,0.896,2.521,1.531,3.699
			c1.273,2.363,3.375,2.951,5.93,2.885c2.904-0.076,5.881-0.475,8.742-0.975c1.994-0.348,4.922-0.775,5.971-2.781
			c0.986-1.883,0.121-4.576-0.789-6.32c-1.215-2.328-3.227-3.318-5.777-3.533c-1.082-0.092-2.18-0.098-3.248-0.316
			c-0.348-0.07-0.811-0.148-1.041-0.457c-0.246-0.328-0.316-0.799-0.387-1.191c-0.209-1.148-0.303-2.32-0.406-3.482
			c-0.383-4.275-0.658-8.566-0.779-12.857c-0.059-2.053-0.117-4.131,0.078-6.18c0.146-1.527,0.482-3.051,1.707-4.076
			c1.355-1.135,3.088-1.92,4.637-2.742c2.217-1.174,4.477-2.314,6.822-3.205c4.793-1.816,10.354-1.912,15.42-1.812
			c-1.008,2.461-1.869,5.031-2.51,7.615c-0.588,2.377,0.561,3.957,2.164,5.623c3.543,3.674,7.699,6.926,11.926,9.775
			c4.426,2.984,9.098,5.598,13.643,8.391c4.758,2.926,9.232,6.164,13.783,9.393c3.982,2.826,8.914,5.42,13.898,5.654
			c2.111,0.098,3.699-1.252,5.246-2.541c1.92-1.596,1.287-3.912,0.576-5.998c-0.723-2.123-1.656-4.494-3.209-6.16
			c-1.045-1.119-2.514-1.781-3.832-2.514c-4.285-2.385-8.375-5.113-12.488-7.777c-1.854-1.201-3.703-2.408-5.576-3.578
			c-1.295-0.809-2.639-1.744-4.104-2.225c-1.297-0.426-3.186-1.018-2.598-2.791c0.674-2.025,2.748-3.883,4.428-5.096
			c1.73-1.252,3.895-1.779,5.842-2.596c2.299-0.963,4.559-2.031,6.768-3.186c2.15-1.125,4.289-2.334,6.115-3.949
			c1.727-1.527,3.213-3.311,4.836-4.943c3.641-3.666,7.795-6.777,12.631-8.676c4.525-1.775,9.523-2.92,14.389-3.125
			c2.057-0.086,3.711,0.355,5.631,0.961c2.145,0.676,4.51,0.643,6.73,0.535c2.945-0.145,5.838-0.639,8.672-1.449
			c2.129-0.607,4.547-1.812,6.803-1.715c3.902,0.17,1.947,5.031,1.43,7.279c-1.229,5.322-2.623,10.607-3.977,15.898
			c-1.311,5.117-2.631,10.215-4.521,15.154c-0.816,2.129-1.746,4.275-1.91,6.578c-0.176,2.455-0.059,4.898-0.336,7.354
			c-0.604,5.318-1.279,10.797,2.199,15.326c1.086,1.414,2.92,3.447,4.896,3.201c1.006-0.125,1.941-0.568,2.961-0.674
			c1.488-0.152,2.885,0.287,4.344,0.486c1.303,0.178,2.568-0.182,3.869-0.127c1.447,0.068,2.857,0.406,4.197-0.365
			c2.098-1.209,2.752-3.729,2.092-5.953c-0.615-2.074-1.943-4.459-3.658-5.834c-0.854-0.686-1.537-0.35-2.498-0.182
			c-0.891,0.156-1.131-0.641-1.254-1.387c-0.299-1.787-0.176-3.873,0.273-5.631c0.494-1.941,1.688-3.719,2.662-5.443
			c2.488-4.393,5.02-8.77,7.727-13.031c2.682-4.225,5.568-8.137,9.676-11.072c4.637-3.312,9.854-5.896,15.061-8.178
			c1.291-0.566,2.572-1.266,3.986-1.361c1.256-0.084,2.514-0.123,3.771-0.061c2.674,0.133,5.354,0.57,7.959,1.174
			c4.486,1.037,8.158,2.844,11.584,5.918c3.84,3.449,7.316,7.314,10.879,11.045c1.607,1.686,3.217,3.371,4.871,5.012
			c1.406,1.393,2.844,2.824,4.57,3.812c3.525,2.016,6.391,4.668,9.291,7.496c3.578,3.488,7.08,7.092,10.154,11.037
			c1.018,1.307,1.971,2.697,3.176,3.844c2.051,1.951,4.703,3.123,6.832,4.984c1.584,1.383,2.789,3.252,4.447,4.533
			c0.896,0.693,2.199,0.635,3.27,0.666c4.639,0.137,9.299,0.178,13.938,0.031c2.303-0.072,4.615-0.191,6.9-0.51
			c1.918-0.268,4.32-0.619,5.684-2.135c1.023-1.137,0.801-2.652,0.258-3.957c-0.977-2.346-2.867-4.5-5.268-5.438
			c-2.766-1.078-5.715-0.396-8.549-0.059c-0.768,0.09-1.896,0.309-2.518-0.299c-0.744-0.729-1.164-1.568-2.078-2.164
			c-1.875-1.215-4.01-1.986-5.9-3.186c-2.197-1.393-3.76-3.246-4.959-5.541c-1.316-2.514-2.348-5.166-3.66-7.684
			c-1.346-2.578-2.82-5.098-4.441-7.516c-1.438-2.146-3.129-4.113-4.553-6.27c-1.447-2.193-2.457-4.611-3.23-7.115
			c-1.393-4.506-2.674-9.809,0.145-14.006C1362.183,341.098,1362.591,340.545,1362.974,339.975
			C1368.712,342.092,1361.577,342.057,1362.974,339.975z"/>
	</g>
	<g id="SPLINE_17_">
		
			<path fill="none" stroke="#FB8604" stroke-width="3.5" stroke-linecap="round" stroke-linejoin="round" stroke-miterlimit="10" d="
			M932.651,336.982c2.76-0.459,5.271-0.691,7.998,0.141c2.785,0.852,5.43,2.109,8.18,3.061c2.678,0.928,5.471,1.457,8.146,2.375
			c0.773,0.266,1.471,0.604,2.139,1.072c5.998,4.195,12.295,7.832,18.674,11.416c8.266,4.643,16.594,9.182,24.752,14.01
			c3.525,2.086,7.174,4.178,10.273,6.881c1.393,1.213,2.385,2.746,3.934,3.779c2.217,1.479,4.658,2.59,6.783,4.215
			c2.061,1.576,3.762,3.547,6.131,4.689c1.164,0.561,2.414,1.021,3.387,1.898c0.957,0.861,1.617,2.072,2.709,2.777
			c2.34,1.516,5.172-0.85,7.598-0.791c1.055,0.027,1.121,0.988,1.584,1.715c0.607,0.949,1.83,0.92,2.828,0.871
			c2.596-0.129,5.586-0.342,8.047-1.219c4.305-1.537,3.732-8.273,0.432-10.6c-1.963-1.381-4.395-2.195-6.66-2.932
			c-1.299-0.422-2.871-1.084-4.27-1.006c-0.457,0.025-0.631-0.094-0.982-0.412c-1.377-1.244-2.711-2.535-4.086-3.779
			c-6.639-6.014-13.395-11.904-19.891-18.074c-3.191-3.031-6.383-6.123-9.023-9.66c-1.713-2.293-3.232-4.494-5.33-6.475
			c-3.561-3.365-6.939-6.842-9.049-11.338c-2.305-4.914-3.369-10.373-4.229-15.697c-0.846-5.252-1.928-10.77-1.641-16.109
			c0.107-2.016,0.512-4.074,1.713-5.74c1.289-1.787,3.248-2.986,5.273-3.775c1.904-0.742,3.861-1.115,5.906-1.082
			c2.145,0.033,4.189-0.578,6.283-0.953c5.66-1.018,11.031,0.057,16.619,0.953c2.041,0.326,4.391,0.738,6.326-0.229
			c2.209-1.104,3.705-3.299,5.744-4.672c2.221-1.498,4.32-3.328,5.521-5.775c1.238-2.531,0.643-5.428-0.936-7.674
			c-0.553-0.789-1.289-1.434-1.811-2.248c-0.652-1.016-0.963-2.209-1.211-3.377c-0.48-2.271-0.791-4.666-0.727-6.992
			c0.023-0.809,0.143-1.619,0.084-2.428c-0.08-1.104-0.551-2.129-1.074-3.088c-1.119-2.045-2.514-3.953-3.947-5.787
			c-2.494-3.193-5.266-6.215-8.5-8.672c-0.828-0.629-1.68-1.223-2.555-1.781c-0.354-0.225-0.711-0.445-1.072-0.658
			c0.244-0.408,0.449-0.838,0.625-1.277c0.666-1.656,0.945-3.461,1.041-5.236c0.111-2.012,0.561-6.893-2.379-7.055
			c-1.818-0.1-3.754,0.658-5.4,1.346c-1.754,0.732-3.367,1.691-4.85,2.879c-1.219-2.203-2.578-5.137-4.811-6.498
			c-1.855-1.135-4.02-0.094-5.705,0.873c-2.238,1.283-4.533,3.061-5.779,5.369c-0.627,1.164-0.941,2.453-1.061,3.762
			c-0.066,0.736,0.164,1.854-0.389,2.348c-0.922,0.822-2.088,1.414-3.135,2.064c-2.035,1.266-4.102,2.486-6.209,3.631
			c-5.24,2.846-10.709,5.061-16.6,6.119c-2.564,0.461-5.158,0.717-7.758,0.846c-2.277,0.111-4.74-0.004-6.926,0.746
			c-1.764,0.604-3.158,1.949-4.826,2.756c-2.184,1.055-4.605,1.295-6.998,1.344c-5.936,0.117-11.875-0.697-17.771-1.252
			c-5.979-0.564-11.975-0.91-17.979-0.578c-10.266,0.568-20.512,2.84-30.811,1.607c-4.295-0.514-8.553-1.314-12.836-1.912
			c-5.051-0.705-10.125-1.215-15.205-1.656c-9.969-0.869-19.957-1.516-29.945-2.105c-4.42-0.262-8.848-0.586-13.275-0.66
			c-3.035-0.051-6.033,0.219-9.047,0.562c-5.201,0.594-10.391,1.293-15.562,2.104c-5.643,0.883-11.316,1.842-16.811,3.436
			c-10.033,2.91-18.885,8.986-25.537,17.033c-2.16,2.615-3.861,5.568-5.789,8.352c-2.746,3.963-5.729,7.76-8.754,11.512
			c-7.031,8.717-14.352,17.32-22.436,25.088c-3.656,3.512-7.506,6.869-11.701,9.729c-3.895,2.654-8.24,5.035-12.977,5.641
			c-5.438,0.695-10.979-1.121-15.852-3.387c-2.549-1.186-5.016-2.578-7.27-4.262c-2.092-1.564-3.924-3.43-5.963-5.055
			c-2.027-1.617-4.293-2.441-6.873-2.682c-1.205-0.113-2.416-0.121-3.625-0.152c-0.855-0.02-1.854-0.158-2.678,0.137
			c-2.525,0.898,4.334,9.17,5.098,10.156c3.531,4.553,7.234,9.125,11.498,13.018c4.162,3.803,8.98,6.416,14.43,7.877
			c6.154,1.65,12.68,2.111,19.027,1.783c2.676-0.139,5.408-0.391,7.99-1.141c2.26-0.654,4.174-1.871,6.164-3.086
			c-2.254,5.146-4.447,10.258-6.094,15.639c-1.59,5.197-2.91,10.475-4.156,15.766c-0.51,2.168-0.959,4.363-1.588,6.502
			c-0.16,0.547-0.334,1.098-0.586,1.611c-0.449,0.918-1.373,1.416-1.838,2.312c-1.059,2.039-1.006,4.885-1.129,7.121
			c-0.117,2.121-0.408,4.68,1.467,6.152c1.75,1.373,4.432,1.973,6.617,1.814c2.268-0.164,3.252-1.625,4.471-3.299
			c0.613-0.844,1.652-1.045,2.197-1.973c0.721-1.23,1.158-2.633,1.697-3.947c0.883-2.152,2.002-4.178,3.053-6.25
			c2.377-4.695,3.576-9.783,5.018-14.812c1.373-4.783,2.926-10.242,6.891-13.57c3.621-3.043,8.516-2.893,12.973-2.695
			c4.965,0.217,9.869,0.213,14.801-0.492c11.717-1.674,22.867-5.623,34.275-8.588c-2.926,5.613-5.719,11.35-8.244,17.154
			c-0.713,1.637-1.615,3.43-1.789,5.236c-0.143,1.463,0.506,2.836,1.225,4.066c2.396,4.105,5.658,7.811,8.693,11.445
			c3.539,4.238,7.188,8.391,10.984,12.398c3.613,3.816,7.408,7.457,11.359,10.924c1.252,1.102,2.527,2.178,3.779,3.277
			c0.861,0.754,1.629,1.719,2.793,1.936c4.152,0.775,8.645,0.871,12.852,0.652c3.943-0.207,10.242-1.143,11.107-5.963
			c0.387-2.16-1.418-3.439-3.07-4.4c-0.988-0.572-1.961-1.119-2.82-1.881c-0.885-0.783-1.688-1.654-2.924-1.807
			c-2.137-0.264-4.125,0.643-6.152,1.113c-1.729,0.4-3.23-1.506-4.277-2.592c-3.414-3.541-6.545-7.355-9.793-11.049
			c-1.439-1.637-3.168-3.27-4.172-5.23c-1.104-2.162-0.129-4.488,0.906-6.48c1.328-2.553,2.84-5.119,4.799-7.244
			c1.705-1.85,3.662-3.439,5.322-5.34c3.66-4.191,6.699-8.883,10.354-13.086c0.824-0.951,1.666-1.887,2.506-2.826
			c0.309-0.346,0.328-0.484,0.814-0.494c0.379-0.01,0.758-0.02,1.137-0.033c0.889-0.031,1.775-0.076,2.66-0.131
			c3.125-0.195,6.24-0.518,9.355-0.834c5.801-0.586,11.541-1.031,17.359-0.383c3.244,0.359,6.453,0.963,9.686,1.4
			c3.723,0.504,7.48,0.709,11.234,0.543c7.619-0.334,15.029-2.307,21.588-6.248c-0.527,10.883-1.131,22.076-4.057,32.613
			c-1.377,4.965-3.572,9.869-4.35,14.977c-0.137,0.898-0.201,1.816-0.047,2.717c0.234,1.355,0.91,2.584,1.096,3.955
			c0.324,2.418-0.027,4.922,0.096,7.357c0.24,4.695,1.51,9.617,6.574,11.004c4.848,1.326,10.252,0.479,15.162-0.01
			c0.879-0.086,1.758-0.174,2.641-0.188c1.037-0.018,2.176,0.137,3.08-0.482c2.057-1.408,2.84-4.602,1.807-6.809
			c-1.043-2.234-3.375-4.186-5.732-4.887c-1.096-0.326-2.215-0.324-3.34-0.178c-0.939,0.121-1.59,0.193-2.062-0.746
			c-1.857-3.676-0.775-7.572,0.482-11.293c1.621-4.789,3.637-9.453,5.623-14.102c3.814-8.924,10.275-16.811,16.824-23.883
			C928.272,341.174,930.413,339.025,932.651,336.982"/>
	</g>
	<g id="SPLINE_16_">
		
			<path fill="none" stroke="#FB8604" stroke-width="3.5" stroke-linecap="round" stroke-linejoin="round" stroke-miterlimit="10" d="
			M535.261,389.615c-4.867,1.924-10.133,1.863-15.258,1.305c1.049-0.971,2.084-1.969,2.941-3.115
			c0.928-1.244,1.568-2.66,2.291-4.025c1.605-3.041,3.869-5.605,6.51-7.793c0.338,0.713,0.834,1.512,0.85,2.326
			c0.016,0.887,0.242,1.758,0.451,2.615C533.751,383.832,534.577,386.705,535.261,389.615"/>
	</g>
	<g id="SPLINE_15_">
		
			<path fill="none" stroke="#FB8604" stroke-width="3.5" stroke-linecap="round" stroke-linejoin="round" stroke-miterlimit="10" d="
			M575.302,334.875c7.588-8.936,15.971-17.393,22.607-27.09c2.895-4.23,5.207-8.773,5.922-13.91c0.654-4.707-0.092-9.48,0.6-14.178
			c0.814-5.518,3.73-10.598,6.859-15.117c3.088-4.461,6.568-8.822,10.551-12.52c1.523-1.416,3.166-2.748,5.008-3.727
			c2.453-1.305,5.061-1.609,7.775-1.105c2.295,0.424,4.576,1.008,6.896,0.381c2.389-0.646,4.27-2.379,5.875-4.184
			c1.643-1.846,3.076-3.883,4.359-5.992c1.154-1.895,2.33-3.928,2.945-6.074c0.508-1.775,0.135-3.062-1.424-4.057
			c-2.197-1.402-4.664-2.402-6.699-4.055c-2.098-1.701-2.719-4.016-3.406-6.512c-0.744-2.693-1.914-5.094-4.014-6.988
			c-2.109-1.904-4.766-2.861-7.322-3.996c-1.232-0.547-2.402-1.189-3.543-1.91c-1.07-0.678-2.346-1.23-3.342-1.988
			c-1.818-1.383-2.469-3.086-1.951-5.318c0.537-2.311,1.623-4.449,2.402-6.678c0.463-1.324,0.863-3.844-1.383-2.908
			c-2.205,0.918-4.41,3.324-5.375,5.469c-0.123-2.445-0.256-5.359-1.877-7.35c-0.875-1.072-2.16-1.705-3.445-0.951
			c-1.994,1.168-3.318,3.568-4.539,5.455c-1.457,2.25-2.834,4.549-4.258,6.818c-1.328,2.115-2.664,4.299-4.389,6.119
			c-1.381,1.461-3.053,2.424-4.855,3.273c-4.266,2.014-8.145,4.336-11.559,7.645c-7.719,7.477-13.318,17.223-22.994,22.475
			c-4.777,2.592-9.869,4.551-14.502,7.422c-2.275,1.41-4.408,3.047-5.953,5.264c-0.877,1.258-1.416,2.682-2.219,3.977
			c-0.785,1.266-2.289,2.025-3.529,2.75c-3.73,2.184-7.576,4.176-11.383,6.225c-8.836,4.756-17.639,9.576-26.299,14.648
			c-10.047,5.885-19.928,12.086-29.156,19.201c-8.193,6.316-15.809,13.314-23,20.744c-3.982,4.115-7.906,8.295-11.617,12.658
			c-3.232,3.801-6.373,7.764-8.822,12.123c-2.656,4.729-3.82,9.795-4.461,15.131c-0.307,2.551-0.639,5.076-1.316,7.561
			c-0.803,2.936-1.926,5.768-3.006,8.609c-2.977,7.828-7.34,19.76,1.156,25.701c3.805,2.662,8.596,3.783,13.086,4.646
			c5.168,0.992,10.416,1.578,15.656,2.029c12.055,1.041,24.135,1.162,36.227,1.131c5.68-0.014,11.367-0.021,17.041,0.293
			c6.102,0.34,12.129,1.27,18.197,1.941c5.789,0.641,11.764,1.016,17.471-0.404c1.441-0.359,2.855-0.826,4.232-1.383
			c0.688-0.277,1.365-0.576,2.033-0.896c0.334-0.16,0.666-0.324,0.994-0.494c0.289,0.098,0.576,0.201,0.861,0.307
			c1.984,0.732,3.885,1.189,6.008,1.32c2.359,0.145,4.732,0.123,7.094,0.062c2.24-0.059,4.557-0.07,6.77-0.455
			c0.484-0.084,0.922-0.291,1.41-0.285c0.734,0.01,1.471-0.02,2.205-0.059c1.578-0.088,3.156-0.242,4.738-0.215
			c2.344,0.043,4.896,0.518,6.504-1.617c1.27-1.688,2.035-4.281,1.504-6.367c-0.525-2.068-2.701-2.984-4.648-3.145
			c-1.639-0.135-3.299,0.822-4.123-1.08c-0.84-1.934-1.107-4.184-1.318-6.258c-0.617-6.1,0.359-12.053,1.535-18.021
			c0.854-4.328,1.652-8.652,2.258-13.021C573.325,348.92,574.229,341.887,575.302,334.875
			C585.741,322.578,573.177,348.783,575.302,334.875z"/>
	</g>
	<g id="SPLINE_14_">
		
			<path fill="none" stroke="#FB8604" stroke-width="3.5" stroke-linecap="round" stroke-linejoin="round" stroke-miterlimit="10" d="
			M362.749,228.697c4.234-2.893,7.674-7.215,9.914-11.803c1.119-2.291,1.914-4.77,1.928-7.338c0.012-1.941-0.465-3.795-1.123-5.607
			c-0.736-2.02-1.998-2.953-4.004-3.662c-2.221-0.785-4.516-1.348-6.707-2.225c-2.27-0.908-3.967-2.166-5.199-4.307
			c-0.426-0.738-0.822-1.564-1.504-2.107c-0.846-0.672-2.012-0.807-3.053-0.883c-2.568-0.188-5.148-0.252-7.719-0.426
			c-1.363-0.094-2.729-0.154-4.094-0.148c-0.305,0-1.896,0.145-1.914-0.07c-0.008-0.125-0.035-0.24-0.055-0.363
			c-0.238-1.594,0.131-3.469,0.186-5.078c0.072-2.129,0.176-4.314-0.105-6.434c-0.068-0.506-0.199-1.814-0.945-1.799
			c-0.924,0.016-1.732,1.535-2.145,2.178c-1.432,2.238-2.576,4.674-3.576,7.131c-0.564,1.387-1.074,2.797-1.516,4.227
			c-0.111,0.361-0.219,0.723-0.32,1.086c-0.379,0.031-0.758,0.059-1.139,0.082c-0.799,0.045-1.602,0.066-2.4,0.02
			c-2.35-0.139-3.908-1.18-4.971-3.26c-1.191-2.33-2.213-4.699-3.658-6.896c-0.857-1.305-2.832-4.588-4.816-3.623
			c-1.939,0.941-2.766,4.277-3.291,6.15c-0.793,2.826-1.178,5.74-1.139,8.676c0.039,2.926,0.367,5.84,0.516,8.762
			c0.145,2.838,0.131,5.682,0.078,8.521c-0.111,6.164-0.334,12.318-0.119,18.482c0.182,5.252,0.818,10.559,0.613,15.814
			c-0.094,2.436-0.545,4.838-1.391,7.125c-0.816,2.209-2.016,4.562-4.113,5.805c-2.102,1.244-4.654,1.154-7.01,1.092
			c-2.783-0.072-5.645-0.186-8.295,0.82c-2.338,0.889-4.305,2.537-6.643,3.406c-1.049,0.389-2.172,0.521-3.268,0.717
			c-8.066,1.436-15.979,5.412-22.777,9.871c-9.219,6.043-16.656,14.072-22.521,23.367c-5.754,9.119-10.303,19.135-13.324,29.486
			c-2.955,10.121-3.93,20.566-3.01,31.059c0.418,4.785,1.338,9.557,1.453,14.363c0.047,1.971-0.098,3.988-0.816,5.844
			c-0.82,2.123-2.383,3.857-4.109,5.297c-3.051,2.545-6.846,4.643-10.641,5.859c-3.547,1.139-7.434,1.068-11.115,1.115
			c-22.568,0.289-45.156-0.453-67.719-0.764c-5.598-0.078-11.193-0.121-16.791-0.148c-5.227-0.027-10.477,0.008-15.691-0.373
			c-2.168-0.158-4.359-0.391-6.439-1.051c-1.898-0.604-3.594-1.645-5.4-2.463c-4.203-1.902-9.357-3.176-13.988-2.787
			c-2.115,0.178-4.195,0.979-5.404,2.812c-0.771,1.174-1.414,3.24-0.314,4.428c0.635,0.682,1.646,0.848,2.523,0.982
			c1.318,0.201,2.646,0.217,3.967,0.414c2.936,0.439,5.658,1.572,8.07,3.293c1.35,0.963,2.725,2.064,3.604,3.49
			c0.338,0.547,0.803,0.789,1.42,0.949c1.857,0.479,3.859,0.539,5.762,0.686c1.951,0.15,3.904,0.279,5.855,0.404
			c21.389,1.352,42.822,2.512,64.244,3.176c21.176,0.654,42.359,0.504,63.541,0.545c2.846,0.004,5.695-0.002,8.541,0.068
			c0.344,0.01,0.688,0.02,1.031,0.035c0.379,0.02,0.541-0.066,0.514,0.355c-0.062,0.961,0.039,1.643,1.123,1.729
			c1.914,0.154,3.9-0.133,5.818-0.182c2.283-0.057,4.568-0.068,6.852-0.068c6.119,0.002,12.24,0.104,18.357,0.252
			c11.701,0.283,23.393,0.789,35.084,1.332c1.914,0.088,3.834,0.193,5.752,0.18c1.412-0.01,2.883-0.068,4.107-0.857
			c0.592-0.381,0.924-0.527,1.633-0.424c1.109,0.164,2.123-0.096,3.086-0.66c1.828-1.072,3.506-3.176,2.268-5.312
			c-1.287-2.221-3.82-3.682-5.766-5.256c-0.535-0.432-1.854-1.297-1.658-2.148c0.168-0.732,1.314-1.127,1.879-1.477
			c2.064-1.279,2.244-3.627,1.41-5.766c-0.428-1.102-1.135-1.988-2.076-2.699c-0.631-0.475-1.859-0.982-2.09-1.818
			c-0.234-0.854,0.77-1.822,1.273-2.373c0.826-0.9,1.834-1.713,2.486-2.758c1.246-1.998-0.545-4.51-1.314-6.367
			c-1.031-2.492-1.359-4.881,0.176-7.248c1.262-1.943,3.139-3.398,4.967-4.777c2.055-1.553,4.014-3.201,5.975-4.871
			c1.594-1.355,3.32-3.104,5.295-3.893c1.178-0.465,1.848,0.465,2.385,1.396c1.131,1.967,2.021,4.08,3.016,6.117
			c2.203,4.51,4.439,9.002,6.596,13.533c1.924,4.043,3.846,8.117,5.102,12.426c1.258,4.311,2.137,9.15,4.686,12.928
			c0.643,0.949,1.459,1.707,2.295,2.48c0.615,0.568,1.047,1.139,1.125,1.99c0.068,0.719,0.033,1.455,0.307,2.137
			c0.395,0.98,1.336,1.516,2.295,1.828c2.027,0.666,4.264,0.787,6.379,0.867c2.129,0.082,4.344,0.127,6.451-0.223
			c0.578-0.098,1.209-0.223,1.674-0.605c0.381-0.312,0.805-0.102,1.258-0.043c0.508,0.066,1.027,0.037,1.502-0.168
			c0.299-0.131,0.564-0.322,0.793-0.553c0.334,0.064,0.67,0.123,1.006,0.172c1.486,0.215,2.994,0.215,4.459-0.145
			c1.98-0.488,4.598-1.693,4.945-3.967c0.336-2.209-1.537-4.504-3.09-5.836c-0.945-0.811-2.031-1.438-3.264-1.67
			c-1.34-0.252-2.662,0.014-4.006-0.039c-1.418-0.055-2.084-1.023-2.607-2.236c-0.928-2.148-1.518-4.457-2.191-6.693
			c-0.732-2.436-1.449-4.875-2.145-7.322c-1.494-5.258-2.898-10.541-3.932-15.91c-0.402-2.086-0.738-4.189-1.234-6.256
			c-0.512-2.121-1.393-4.076-2.25-6.074c-1.09-2.545-1.816-5.16-2.186-7.904c-0.385-2.846-0.152-5.838,0.193-8.684
			c0.25-2.061,0.697-4.1,1.59-5.982c0.832-1.75,1.979-3.328,3.082-4.912c2.842-4.086,5.467-8.318,7.99-12.605
			c2.863-4.867,5.652-9.814,8-14.953c1.9-4.156,3.766-8.824,3.32-13.488c-0.521-5.492-4.391-9.676-7.061-14.238
			c-1.293-2.207-2.432-4.604-2.799-7.158c-0.375-2.629,0.531-5.521-0.453-8.045c-0.479-1.23-1.271-2.32-1.928-3.459
			c-0.881-1.529-1.557-3.143-2.041-4.84C363.12,236.006,362.649,232.309,362.749,228.697"/>
	</g>
</g>
<g id="X-TEMP">
</g>
</svg>
